<?xml version="1.0" encoding="UTF-8"?>
<svg version="1.1" xmlns="http://www.w3.org/2000/svg" width="313" height="313">
<path d="M0 0 C103.29 0 206.58 0 313 0 C313 103.29 313 206.58 313 313 C209.71 313 106.42 313 0 313 C0 209.71 0 106.42 0 0 Z " fill="#030303" transform="translate(0,0)"/>
<path d="M0 0 C79.53 0 159.06 0 241 0 C241 0.33 241 0.66 241 1 C240.31035156 1.02578125 239.62070313 1.0515625 238.91015625 1.078125 C230.76716208 1.56960887 224.42845478 3.0932666 218.125 8.4375 C215.66510574 11.27230912 215.66510574 11.27230912 213 16 C221.91 16 230.82 16 240 16 C237.5625 24.375 237.5625 24.375 236.79907227 26.94677734 C231.0547842 47.16833302 230.97852177 74.54644193 238.60546875 94.26171875 C240 98 240 98 240 101 C227.13 101 214.26 101 201 101 C200.67 102.65 200.34 104.3 200 106 C195.77798246 112.8593326 190.65336174 116.27332536 182.98828125 118.42578125 C178.86347516 119.21839105 175.18694718 119.27912981 171 119 C170.19057709 127.33031074 169.7063867 133.29942796 174.875 140.25 C176.22891287 141.85140232 177.60088463 143.43793546 179 145 C181.52672455 148.79008682 181.44341245 150.49197342 181 155 C179.10681465 160.48512081 176.6679923 163.50868238 172 167 C170.46395285 165.2633385 168.94654837 163.51017245 167.4375 161.75 C166.59058594 160.77546875 165.74367187 159.8009375 164.87109375 158.796875 C164.25363281 157.87390625 163.63617188 156.9509375 163 156 C163.42578125 153.9375 163.42578125 153.9375 164 152 C162.68459734 149.60159145 162.68459734 149.60159145 160.75 147.25 C154.86722657 139.20668703 153.22291458 132.99750279 154 123 C154.32129095 121.33097004 154.65300426 119.66387585 155 118 C131.92464907 117.53051168 109.77684472 117.90675416 87 122 C85.15505915 127.53482254 84.19885054 134.35431204 86.87158203 139.76416016 C89.47492997 143.84062206 92.57988499 147.57988499 96 151 C96.7103364 159.09783496 94.18127863 164.78246565 89 171 C85.44263493 169.5328827 83.55804833 167.6293581 81.1875 164.625 C80.56230469 163.85414063 79.93710938 163.08328125 79.29296875 162.2890625 C78 160 78 160 78.50390625 158.0078125 C79.27861687 155.86911134 79.27861687 155.86911134 77.671875 153.703125 C77.03765625 152.89359375 76.4034375 152.0840625 75.75 151.25 C68.65513514 141.47862924 68.61452107 133.76424576 69 122 C67.94039063 121.7421875 66.88078125 121.484375 65.7890625 121.21875 C59.37734839 119.15642546 54.82474162 114.98055244 51.31640625 109.25 C50.11851688 106.86100816 49.00888411 104.47404746 48 102 C46.13794922 102.01353516 46.13794922 102.01353516 44.23828125 102.02734375 C42.59632232 101.99919588 40.9543952 101.96914794 39.3125 101.9375 C38.49587891 101.94845703 37.67925781 101.95941406 36.83789062 101.97070312 C30.93261993 101.80334728 30.93261993 101.80334728 28.38134766 99.60571289 C25.61819471 95.92507892 24.02578635 91.97909935 22.75 87.5625 C22.43546875 86.51191406 22.1209375 85.46132812 21.796875 84.37890625 C19.83605854 76.06465997 19.75550062 67.82164463 19.6875 59.3125 C19.65849609 58.12205078 19.62949219 56.93160156 19.59960938 55.70507812 C19.52390716 44.9961264 21.69497654 35.23596091 27.0625 25.875 C27.54847656 25.00617187 28.03445312 24.13734375 28.53515625 23.2421875 C29.91666731 21.12755458 31.0569762 19.60027211 33 18 C35.08643383 17.97110774 37.17492852 17.95468527 39.25976562 18.04125977 C46.33847183 18.45449422 46.33847183 18.45449422 52.59228516 15.72216797 C55.46549576 12.18963795 57.18366469 8.15702934 59 4 C59.66 3.34 60.32 2.68 61 2 C57.01659695 1.90026148 53.03368892 1.82812802 49.04931641 1.78027344 C47.03652373 1.75053955 45.02407866 1.69968271 43.01171875 1.6484375 C35.70723726 1.57502563 30.04757561 1.66834875 24 6 C23.0925 6.62261719 22.185 7.24523437 21.25 7.88671875 C11.10284551 17.41729267 5.48669158 33.78906326 4.83886719 47.38061523 C4.80111354 50.68735208 4.76885997 53.99360652 4.75976562 57.30053711 C4.75016841 59.40064803 4.71914775 61.49973197 4.6875 63.59960938 C4.56213504 79.54441367 6.87379885 97.76105862 17.41796875 110.4140625 C23.17242793 116.18273022 29.08902403 116.63943508 37 117 C36.49492637 123.54863519 35.76369767 130.05517856 34.9140625 136.56640625 C22.41287672 216.33760423 22.41287672 216.33760423 39 293 C42.1385274 296.83138189 45.04717989 298.81114675 49.625 300.625 C50.56601562 301.00914062 51.50703125 301.39328125 52.4765625 301.7890625 C62.37008061 305.18927382 72.20524024 306.88138415 82.5625 308.125 C83.9213118 308.29487177 85.28003651 308.46544163 86.63867188 308.63671875 C90.4235143 309.11079895 94.21157587 309.55544409 98 310 C98.83474854 310.10965088 99.66949707 310.21930176 100.52954102 310.33227539 C109.2444604 311.38597553 118.04832099 311.1966903 126.8125 311.1875 C127.6941684 311.18756042 128.57583679 311.18762085 129.48422241 311.18768311 C145.40360421 311.1722094 161.14158218 310.45141382 177 309 C177.93086426 308.91991699 178.86172852 308.83983398 179.82080078 308.75732422 C190.40506424 307.83941074 200.61516974 306.27847985 211 304 C212.15886719 303.77441406 213.31773437 303.54882812 214.51171875 303.31640625 C232.52947262 299.99841725 232.52947262 299.99841725 248 291 C248.93136526 289.50066343 249.82539077 287.97770098 250.6875 286.4375 C253.91690607 281.12517077 257.74705398 280.47896579 263.5546875 279.00390625 C277.3352596 274.98847878 287.09473303 264.78716055 294.1484375 252.703125 C315.77469411 211.33701422 303.231595 159.79621813 290.0846405 117.7384491 C287.38169628 106.04326981 287.38169628 106.04326981 282 96 C282.34541224 90.55975722 283.11791285 85.33138443 284.1472168 79.97900391 C288.03745944 59.09839522 288.80349636 30.07219655 276.4140625 11.640625 C275.36675998 10.25405546 274.28945103 8.88917313 273.171875 7.55859375 C272 6 272 6 272 4 C271.401875 3.71125 270.80375 3.4225 270.1875 3.125 C268 2 268 2 265 0 C280.84 0 296.68 0 313 0 C313 103.29 313 206.58 313 313 C209.71 313 106.42 313 0 313 C0 209.71 0 106.42 0 0 Z " fill="#FBFBFB" transform="translate(0,0)"/>
<path d="M0 0 C1.12183182 -0.00137466 2.24366364 -0.00274933 3.39949036 -0.00416565 C4.63594803 -0.00057037 5.8724057 0.0030249 7.14633179 0.00672913 C8.44384872 0.0065831 9.74136566 0.00643707 11.07820129 0.00628662 C14.64203255 0.00599902 18.20583034 0.01188977 21.7696538 0.01886058 C25.49192162 0.02510027 29.21419016 0.0256984 32.9364624 0.02688599 C39.98772231 0.02999748 47.03896676 0.03820843 54.09021986 0.04823548 C62.11671356 0.05940224 70.143208 0.06490849 78.16970754 0.06993091 C94.68324629 0.08039118 111.19676949 0.09798712 127.71029663 0.12025452 C127.30327515 0.85340881 126.89625366 1.58656311 126.47689819 2.3419342 C125.94032593 3.31549866 125.40375366 4.28906311 124.85092163 5.29212952 C124.32015015 6.25215881 123.78937866 7.21218811 123.24252319 8.2013092 C115.85417663 22.2763684 115.48795131 37.44247534 115.30465698 52.98191833 C114.74854168 94.66979178 114.74854168 94.66979178 104.27279663 105.68275452 C99.71950943 108.23703758 94.84958234 108.24731885 89.71810913 108.25306702 C88.60049194 108.25435608 87.48287476 108.25564514 86.33139038 108.25697327 C85.17767944 108.25310608 84.02396851 108.24923889 82.83529663 108.24525452 C81.68932007 108.2491217 80.54334351 108.25298889 79.36264038 108.25697327 C69.97338796 108.2461686 69.97338796 108.2461686 65.67514038 107.63197327 C48.36283421 105.3975771 30.7919254 107.06836951 13.63192749 109.69715881 C-9.36397046 113.14094448 -9.36397046 113.14094448 -17.28970337 109.12025452 C-26.76190721 100.35846596 -29.81389497 84.52662047 -30.44204712 72.10853577 C-30.54243472 68.71543501 -30.58754171 65.32728904 -30.60220337 61.93275452 C-30.60776245 60.85227844 -30.61332153 59.77180237 -30.61904907 58.65858459 C-30.44555482 39.1842253 -25.44804117 19.17269352 -11.47720337 4.93275452 C-7.44510784 1.081097 -5.58184128 -0.00525597 0 0 Z " fill="#000000" transform="translate(82.28970336914063,0.8797454833984375)"/>
<path d="M0 0 C2.77372629 -0.00439654 5.54588733 -0.04088262 8.31933594 -0.07861328 C10.10839309 -0.08447917 11.89745766 -0.08845009 13.68652344 -0.09033203 C14.91032211 -0.11188858 14.91032211 -0.11188858 16.15884399 -0.13388062 C22.16171358 -0.08680684 26.93930409 1.35318679 32.14746094 4.37060547 C34.08496094 6.40576172 34.08496094 6.40576172 35.14746094 8.43310547 C35.51871094 9.10470703 35.88996094 9.77630859 36.27246094 10.46826172 C38.01314521 14.25269582 38.17411992 16.94814714 38.02246094 21.05810547 C37.95234363 27.84546106 38.71614476 34.34072852 39.64746094 41.05810547 C40.67641906 48.65894593 41.44759491 56.13266604 41.45996094 63.80810547 C41.46769531 64.91448364 41.46769531 64.91448364 41.47558594 66.04321289 C41.37619491 73.8072498 40.33281548 81.32102517 35.14746094 87.37060547 C24.27265837 93.543104 11.9770113 93.86413904 -0.203125 93.76171875 C-2.48269994 93.74556891 -4.76051579 93.76170052 -7.04003906 93.78076172 C-17.54065194 93.79561568 -29.61271644 93.76531808 -37.85253906 86.37060547 C-42.39679744 79.00577292 -42.04543203 71.57097368 -42.04003906 63.18310547 C-42.0399585 62.01924316 -42.03987793 60.85538086 -42.03979492 59.65625 C-41.98632803 51.49664005 -41.43077193 43.56665976 -40.34472656 35.48779297 C-39.88155628 31.96803327 -39.71562655 28.49027575 -39.60913086 24.9440918 C-39.32794357 16.50549224 -38.07548677 9.34514449 -31.72753906 3.37060547 C-21.44905454 -0.20451958 -10.74741915 -0.0019076 0 0 Z " fill="#F8F8F8" transform="translate(184.8525390625,186.62939453125)"/>
<path d="M0 0 C2.85902137 0.00318677 5.71703162 -0.02046686 8.57592773 -0.0456543 C10.41251499 -0.04792538 12.24910499 -0.04863167 14.08569336 -0.04760742 C14.93061844 -0.05681717 15.77554352 -0.06602692 16.64607239 -0.07551575 C22.59280229 -0.02930761 27.6075577 0.79526106 32.27709961 4.81567383 C36.21026599 10.02372863 36.67831023 13.91416966 36.90991211 20.25317383 C37.20264875 26.96641976 37.96306887 33.44614499 39.09741211 40.06567383 C40.31618692 47.42254953 40.8317444 54.60784568 40.84741211 62.06567383 C40.85264893 62.97027344 40.85788574 63.87487305 40.86328125 64.80688477 C40.77525612 73.16070303 39.42095322 80.39378226 34.53491211 87.31567383 C23.11013399 94.314637 6.94357529 93.60584988 -5.96508789 93.69067383 C-7.12089355 93.70445068 -8.27669922 93.71822754 -9.4675293 93.73242188 C-19.25752458 93.67975729 -29.72694616 92.86333222 -37.46508789 86.31567383 C-43.67853234 79.03303277 -42.78975278 68.56868134 -42.71508789 59.50317383 C-42.71049561 58.3475293 -42.70590332 57.19188477 -42.70117188 56.0012207 C-42.6302117 49.35070159 -42.25612301 42.99352007 -40.96118164 36.45629883 C-40.43201759 33.10631539 -40.28335366 29.85909431 -40.17089844 26.47436523 C-39.87590294 17.68153881 -39.22444201 10.89738666 -33.46508789 3.87817383 C-23.61508432 -1.25203636 -10.82554525 -0.02528239 0 0 Z " fill="#F8F8F8" transform="translate(77.465087890625,185.684326171875)"/>
<path d="M0 0 C3.71683052 11.05518821 6.9194837 22.18393005 9.75 33.5 C10.04334229 34.66756836 10.33668457 35.83513672 10.63891602 37.03808594 C14.42798364 52.41318793 16.20647265 67.22823797 16.29516602 83.05004883 C16.30665024 84.46616638 16.32704578 85.88224187 16.35668945 87.2980957 C16.70408448 104.00993133 13.87005644 122.29044944 2 135 C0.47191659 136.08379451 -1.07976261 137.1347732 -2.6484375 138.15893555 C-3.46231934 138.69286423 -4.27620117 139.22679291 -5.11474609 139.77690125 C-5.73687988 140.18052383 -6.35901367 140.58414642 -7 141 C-6.99333817 140.45496323 -6.98667633 139.90992645 -6.97981262 139.34837341 C-6.68749416 114.24786358 -6.44835312 89.42436404 -9.57226562 64.47900391 C-10.02003092 60.83707731 -10.41458442 57.19232228 -10.796875 53.54296875 C-11.80900418 43.9623253 -12.86643361 34.44478253 -14.50268555 24.94799805 C-15.29892875 20.22799965 -15.96044682 15.49002725 -16.625 10.75 C-16.7590625 9.80253906 -16.893125 8.85507813 -17.03125 7.87890625 C-17.35548244 5.58611971 -17.67839103 3.29315573 -18 1 C-15.75013201 0.83156069 -13.50009983 0.66531346 -11.25 0.5 C-9.37054688 0.36078125 -9.37054688 0.36078125 -7.453125 0.21875 C-4.97265229 0.06161598 -2.48544483 0 0 0 Z " fill="#FCFCFC" transform="translate(266,116)"/>
<path d="M0 0 C2.12560437 0.30836232 4.25047065 0.62181614 6.375 0.9375 C8.15003906 1.19853516 8.15003906 1.19853516 9.9609375 1.46484375 C13 2 13 2 15 3 C15 6.63 15 10.26 15 14 C20.28 14 25.56 14 31 14 C31 10.37 31 6.74 31 3 C33.89503383 2.49494737 36.79087953 1.9957978 39.6875 1.5 C40.91243164 1.28537109 40.91243164 1.28537109 42.16210938 1.06640625 C46.14978248 0.38834038 49.93730404 -0.19858392 54 0 C55.88098406 9.87516629 56.29918382 19.71183164 56.4375 29.75 C56.47166016 31.00006836 56.50582031 32.25013672 56.54101562 33.53808594 C56.54681641 34.71661133 56.55261719 35.89513672 56.55859375 37.109375 C56.57204834 38.17124023 56.58550293 39.23310547 56.59936523 40.32714844 C56 43 56 43 53.59008789 44.80566406 C52.73535889 45.19979492 51.88062988 45.59392578 51 46 C50.01 46.495 50.01 46.495 49 47 C41.40712184 48.14547731 33.80888716 48.2191468 26.14355469 48.24023438 C24.0041676 48.24998101 21.86572714 48.28111382 19.7265625 48.3125 C12.31352345 48.37150455 5.75780928 48.28998609 -1 45 C-2.92897613 40.18582578 -2.19049886 34.344685 -2.1875 29.25 C-2.18814453 28.1350415 -2.18878906 27.02008301 -2.18945312 25.87133789 C-2.13378207 17.10504385 -1.44312974 8.64589333 0 0 Z " fill="#030303" transform="translate(157,220)"/>
<path d="M0 0 C1.88715207 9.90754835 2.2191577 19.67741827 2.25 29.75 C2.25902344 31.00006836 2.26804688 32.25013672 2.27734375 33.53808594 C2.27347656 34.71661133 2.26960938 35.89513672 2.265625 37.109375 C2.26336914 38.17124023 2.26111328 39.23310547 2.25878906 40.32714844 C2 43 2 43 0 46 C-9.1601667 49.44037173 -19.23252195 49.28443729 -28.875 49.3125 C-30.02734131 49.31789795 -31.17968262 49.3232959 -32.36694336 49.32885742 C-48.54687911 49.19426844 -48.54687911 49.19426844 -55 45 C-56.75634787 40.63145433 -56.19066282 35.50932878 -56.1875 30.875 C-56.18814453 29.9061084 -56.18878906 28.9372168 -56.18945312 27.93896484 C-56.12416038 18.86475734 -55.24174264 9.98046015 -54 1 C-52.3745692 1.14095064 -50.74965949 1.28792087 -49.125 1.4375 C-48.22007813 1.51871094 -47.31515625 1.59992188 -46.3828125 1.68359375 C-44 2 -44 2 -42 3 C-42 8.61 -42 14.22 -42 20 C-36.72 20 -31.44 20 -26 20 C-26 14.72 -26 9.44 -26 4 C-24.66324219 3.79503906 -23.32648438 3.59007812 -21.94921875 3.37890625 C-20.19529141 3.10690682 -18.4413863 2.83476394 -16.6875 2.5625 C-15.36588867 2.36043945 -15.36588867 2.36043945 -14.01757812 2.15429688 C-13.17001953 2.02216797 -12.32246094 1.89003906 -11.44921875 1.75390625 C-10.66893311 1.63345947 -9.88864746 1.5130127 -9.0847168 1.38891602 C-1.63967357 0 -1.63967357 0 0 0 Z " fill="#030303" transform="translate(103,218)"/>
<path d="M0 0 C5.23949256 4.22070234 7.5028764 9.47681858 9 16 C8.6015625 18.33984375 8.6015625 18.33984375 8 20 C7.443125 19.175 6.88625 18.35 6.3125 17.5 C4.2667875 14.70935473 4.2667875 14.70935473 1.35546875 14.84375 C0.57816406 14.8953125 -0.19914062 14.946875 -1 15 C-1.65256456 16.70577342 -2.29673041 18.41476089 -2.9375 20.125 C-3.29714844 21.07632813 -3.65679687 22.02765625 -4.02734375 23.0078125 C-8.49867959 36.76300628 -7.64113372 56.23514138 -2.625 69.6875 C-1.21896082 72.12154494 -1.21896082 72.12154494 1.0625 72.875 C2.37293681 72.95954431 3.68683879 73 5 73 C7.34012982 64.41952398 7.61433836 55.83977082 8 47 C5.525 47.495 5.525 47.495 3 48 C3.02320313 49.12019531 3.04640625 50.24039063 3.0703125 51.39453125 C3.08907237 52.86718084 3.10727234 54.33983763 3.125 55.8125 C3.14175781 56.55048828 3.15851563 57.28847656 3.17578125 58.04882812 C3.21074628 61.91246426 3.19397555 63.70903668 1 67 C-1.5132689 59.23596467 -2.48478571 52.20755403 -2.375 44.0625 C-2.36919922 43.01578125 -2.36339844 41.9690625 -2.35742188 40.890625 C-2.23419532 33.5609267 -1.55209397 26.92711221 1 20 C4 21 4 21 5.31640625 23.1875 C12.7908623 40.05774562 12.86611807 56.5890617 7 74 C5.52053927 77.45766317 3.90243497 80.75650431 2 84 C-1.64714223 82.56747067 -2.89910139 81.08143898 -4.5625 77.5625 C-13.42391781 56.47560761 -12.82391362 28.17834592 -4.4375 7.1875 C-3.14989019 4.21516708 -2.29178994 2.29178994 0 0 Z " fill="#EFEFEF" transform="translate(259,16)"/>
<path d="M0 0 C0.82405838 -0.00570007 1.64811676 -0.01140015 2.49714661 -0.01727295 C4.22749569 -0.02666482 5.95786219 -0.0332336 7.68823242 -0.03710938 C10.33478411 -0.04688517 12.98058087 -0.07799025 15.62695312 -0.109375 C17.31379751 -0.11589962 19.00064739 -0.12115221 20.6875 -0.125 C21.47609909 -0.1373468 22.26469818 -0.1496936 23.07719421 -0.16241455 C26.37249766 -0.14901215 28.73255618 -0.02376855 31.64868164 1.58227539 C33.14453125 3.203125 33.14453125 3.203125 33.53515625 5.46484375 C33.48875 6.26535156 33.44234375 7.06585938 33.39453125 7.890625 C33.3584375 8.69886719 33.32234375 9.50710937 33.28515625 10.33984375 C33.23875 10.95472656 33.19234375 11.56960937 33.14453125 12.203125 C18.04808753 18.59628088 -3.42730227 18.77717224 -18.85546875 13.203125 C-19.2143078 6.026344 -19.2143078 6.026344 -17.79296875 2.765625 C-13.24316677 -0.90357015 -5.66171863 0.03074863 0 0 Z " fill="#060606" transform="translate(176.85546875,198.796875)"/>
<path d="M0 0 C0.91900085 -0.0033284 1.83800171 -0.0066568 2.78485107 -0.01008606 C4.71789044 -0.01512975 6.65093844 -0.01749518 8.58398438 -0.01733398 C11.55092424 -0.01953425 14.51750015 -0.03775427 17.484375 -0.05664062 C19.36458206 -0.05957226 21.24479089 -0.06155859 23.125 -0.0625 C24.01455383 -0.06968552 24.90410767 -0.07687103 25.82061768 -0.08427429 C32.06803353 -0.06087272 32.06803353 -0.06087272 34.296875 2.16796875 C34.4921875 4.55078125 34.4921875 4.55078125 34.421875 7.29296875 C34.40382812 8.20304688 34.38578125 9.113125 34.3671875 10.05078125 C34.34398437 10.74945313 34.32078125 11.448125 34.296875 12.16796875 C32.27694505 12.65092945 30.25588146 13.12914987 28.234375 13.60546875 C26.54634766 14.00572266 26.54634766 14.00572266 24.82421875 14.4140625 C11.14218333 17.33835136 -3.31134074 17.5412587 -16.703125 13.16796875 C-17.703125 12.16796875 -17.703125 12.16796875 -17.890625 8.85546875 C-17.61460041 3.42698514 -17.61460041 3.42698514 -15.703125 1.16796875 C-10.50970834 -0.07004442 -5.30628687 0.00669909 0 0 Z " fill="#050505" transform="translate(67.703125,197.83203125)"/>
</svg>
